# xmcd CD database file
#
# Track frame offsets:
#	150
#	17113
#	41620
#	61281
#	75317
#	93323
#	107241
#	127696
#	148350
#	165548
#
# Disc length: 2590 seconds
#
# Revision: 1
# Processed by: cddbd v1.5.2PL0 Copyright (c) Steve Scherf et al.
# Submitted via: CDex 1.70beta2
#
DISCID=7a0a1c0a
DTITLE=曽我部恵一 - blue
DYEAR=2007
DGENRE=Pop
TTITLE0=朝日のあたる街
TTITLE1=春を待つ人
TTITLE2=スウィング時代
TTITLE3=夕立ち通り
TTITLE4=サマー'71
TTITLE5=夢を見ていた午後
TTITLE6=LOVE SONG
TTITLE7=センチメンタルな夏
TTITLE8=ぼくたちの昨日
TTITLE9=ブルー
EXTD=YEAR: 2007
EXTT0=
EXTT1=
EXTT2=
EXTT3=
EXTT4=
EXTT5=
EXTT6=
EXTT7=
EXTT8=
EXTT9=
PLAYORDER=
